<svg width="428" height="119" viewBox="0 0 428 119" fill="none" xmlns="http://www.w3.org/2000/svg">
<path d="M7.15784 51.3029C8.15926 53.4543 9.54625 55.1709 11.3028 56.4473C13.0646 57.7292 15.1424 58.6433 17.5469 59.2006C19.9407 59.7469 22.5165 60.02 25.2477 60.02C26.8114 60.02 28.5143 59.7914 30.3619 59.3233C32.1987 58.8607 33.9177 58.1194 35.5082 57.0994C37.0987 56.0794 38.4268 54.7752 39.4871 53.1812C40.5474 51.5816 41.0776 49.6475 41.0776 47.3902C41.0776 45.6345 40.7027 44.1297 39.9476 42.8478C39.1926 41.5714 38.2179 40.4957 37.013 39.6207C35.8134 38.7567 34.4854 38.0433 33.0341 37.4915C31.5775 36.9398 30.153 36.4883 28.7607 36.1372L15.437 32.7373C13.7126 32.2691 12.015 31.695 10.3709 30.9983C8.72155 30.3016 7.28636 29.3708 6.06002 28.206C4.82833 27.0467 3.83762 25.6198 3.08789 23.9366C2.32746 22.2534 1.95259 20.1856 1.95259 17.7443C1.95259 16.2339 2.23106 14.4615 2.79336 12.4216C3.3503 10.3872 4.39456 8.48105 5.9315 6.67521C7.47915 4.8638 9.58373 3.34221 12.2667 2.08815C14.9443 0.839672 18.3823 0.215431 22.5701 0.215431C25.5261 0.215431 28.3537 0.622303 31.0313 1.43605C33.7089 2.25536 36.0544 3.46483 38.068 5.09789C40.0762 6.72537 41.6827 8.74301 42.8769 11.1564C44.0818 13.5753 44.687 16.3732 44.687 19.5725H38.9891C38.882 17.187 38.3625 15.1136 37.4468 13.3356C36.5203 11.5632 35.3208 10.0807 33.8481 8.88792C32.3647 7.70075 30.6618 6.79783 28.7339 6.19031C26.806 5.58279 24.7818 5.27624 22.6611 5.27624C20.7065 5.27624 18.8214 5.49361 17.0114 5.92835C15.196 6.36309 13.6055 7.05979 12.2346 8.01845C10.8583 8.9771 9.76046 10.2479 8.92505 11.8141C8.08428 13.3858 7.66658 15.331 7.66658 17.6552C7.66658 19.1099 7.90221 20.3751 8.37882 21.4508C8.85543 22.5265 9.51412 23.4461 10.3442 24.193C11.1849 24.9454 12.1435 25.5585 13.2306 26.0267C14.3231 26.4949 15.4798 26.8683 16.7115 27.1581L31.283 30.9036C33.4036 31.4888 35.4064 32.1966 37.2754 33.0383C39.1444 33.8799 40.7884 34.9277 42.2129 36.1818C43.6427 37.4302 44.7566 38.9518 45.5652 40.7577C46.3739 42.5579 46.7809 44.7372 46.7809 47.2955C46.7809 47.9922 46.7059 48.9174 46.572 50.0823C46.4328 51.2416 46.1008 52.4789 45.5652 53.7831C45.0297 55.0929 44.2853 56.4194 43.3053 57.7515C42.3307 59.0892 40.9865 60.2931 39.2836 61.3743C37.5807 62.4445 35.4761 63.3251 32.9591 63.9883C30.4475 64.6516 27.4379 64.9916 23.9142 64.9916C20.4012 64.9916 17.1292 64.568 14.1142 63.7264C11.0993 62.8848 8.52876 61.5861 6.40275 59.8416C4.2821 58.0971 2.64877 55.8621 1.4974 53.1254C0.351392 50.4 -0.130574 47.1115 0.0300812 43.2713H5.73336C5.6798 46.4817 6.15106 49.1571 7.15784 51.3029Z" fill="#EE6638"/>
<path d="M59.7982 19.7217V27.3241H59.9695C60.9549 24.6432 62.706 22.503 65.2176 20.8699C67.7345 19.248 70.4925 18.4398 73.5021 18.4398C76.4581 18.4398 78.9269 18.8355 80.9244 19.6326C82.9272 20.4296 84.5231 21.5554 85.728 23.0046C86.9329 24.4593 87.779 26.2373 88.2717 28.3385C88.759 30.4509 89.0054 32.8141 89.0054 35.4225V63.7697H83.843V36.2808C83.843 34.4025 83.6769 32.6524 83.3503 31.0305C83.0183 29.4086 82.4452 28.0041 81.6313 26.8002C80.8066 25.6074 79.698 24.6711 78.3057 23.9855C76.9133 23.3056 75.1729 22.96 73.1004 22.96C71.0226 22.96 69.1805 23.3446 67.5632 24.1137C65.9513 24.8773 64.5803 25.9307 63.4665 27.2684C62.3419 28.606 61.469 30.2001 60.8371 32.0505C60.2105 33.9009 59.8678 35.9018 59.8089 38.0644V63.7642H54.6518V19.7217H59.7982Z" fill="#EE6638"/>
<path d="M99.8282 26.5494C100.706 24.6711 101.89 23.1328 103.395 21.94C104.9 20.7473 106.661 19.8611 108.691 19.2982C110.71 18.7296 112.954 18.4398 115.412 18.4398C117.27 18.4398 119.134 18.6237 120.986 18.9972C122.845 19.3706 124.516 20.0617 125.999 21.0873C127.472 22.1128 128.677 23.5508 129.608 25.3956C130.535 27.2461 131.001 29.6483 131.001 32.6079V56.0002C131.001 58.1627 132.013 59.244 134.037 59.244C134.637 59.244 135.183 59.1381 135.676 58.8984V63.4297C135.076 63.5468 134.535 63.6248 134.075 63.6861C133.609 63.7419 133.02 63.7697 132.313 63.7697C130.995 63.7697 129.94 63.5858 129.153 63.2124C128.355 62.8445 127.739 62.315 127.306 61.6351C126.861 60.9551 126.572 60.1413 126.438 59.1994C126.299 58.2575 126.235 57.2208 126.235 56.0838H126.074C125.137 57.505 124.2 58.7758 123.241 59.885C122.282 60.9941 121.211 61.9249 120.039 62.655C118.866 63.3963 117.522 63.9648 116.017 64.3661C114.512 64.7618 112.718 64.9625 110.64 64.9625C108.675 64.9625 106.827 64.7172 105.103 64.2323C103.379 63.753 101.874 62.9839 100.594 61.9305C99.3034 60.877 98.2966 59.5394 97.5576 57.9175C96.8132 56.3011 96.4437 54.3783 96.4437 52.1544C96.4437 49.0778 97.1024 46.6811 98.4144 44.9422C99.7264 43.2088 101.462 41.8879 103.625 40.9738C105.783 40.0653 108.22 39.4243 110.924 39.0565C113.634 38.6886 116.381 38.3319 119.171 37.9864C120.264 37.8749 121.222 37.7356 122.041 37.5683C122.861 37.39 123.546 37.0946 124.093 36.6654C124.639 36.2418 125.062 35.6622 125.362 34.9153C125.662 34.1796 125.817 33.2098 125.817 32.0171C125.817 30.1945 125.528 28.7064 124.955 27.5359C124.382 26.371 123.589 25.4402 122.577 24.7603C121.565 24.0747 120.392 23.6065 119.048 23.3501C117.704 23.0938 116.274 22.9656 114.737 22.9656C111.46 22.9656 108.782 23.7793 106.704 25.3956C104.626 27.012 103.529 29.6204 103.421 33.2042H98.2537C98.4358 30.646 98.9553 28.4277 99.8282 26.5494ZM125.667 39.6975C125.34 40.3217 124.714 40.7787 123.782 41.063C122.85 41.3472 122.031 41.5479 121.319 41.6593C119.139 42.0551 116.879 42.4118 114.555 42.7239C112.225 43.0416 110.11 43.5098 108.198 44.134C106.287 44.7638 104.712 45.6556 103.486 46.8261C102.249 47.9965 101.638 49.6574 101.638 51.8144C101.638 53.1799 101.895 54.395 102.415 55.4428C102.929 56.4962 103.63 57.4103 104.503 58.1739C105.381 58.9374 106.394 59.5282 107.54 59.924C108.691 60.3197 109.864 60.5203 111.069 60.5203C113.039 60.5203 114.924 60.2082 116.729 59.584C118.539 58.9597 120.108 58.0457 121.447 56.8474C122.786 55.6546 123.852 54.2055 124.644 52.4944C125.431 50.7833 125.833 48.8493 125.833 46.6867V39.6975H125.667Z" fill="#EE6638"/>
<path d="M146.093 19.7217V28.0877H146.259C147.459 25.0166 149.414 22.6367 152.129 20.9591C154.833 19.2814 157.912 18.4398 161.356 18.4398C164.579 18.4398 167.38 19.0641 169.758 20.3181C172.136 21.5722 174.122 23.2665 175.713 25.4012C177.293 27.5359 178.471 30.0106 179.237 32.8252C180.002 35.6455 180.383 38.6218 180.383 41.7485C180.383 44.8809 180.002 47.846 179.237 50.6718C178.471 53.4865 177.293 55.9612 175.713 58.0958C174.122 60.2361 172.141 61.9137 169.758 63.1343C167.38 64.355 164.579 64.9736 161.356 64.9736C159.819 64.9736 158.292 64.773 156.755 64.3773C155.224 63.9815 153.805 63.3796 152.493 62.5881C151.181 61.7911 150.024 60.7934 149.012 59.5951C147.994 58.4024 147.218 57.0034 146.672 55.4094H146.511V80H141.343V19.7217H146.093ZM174.433 34.9599C173.919 32.7082 173.094 30.7073 171.975 28.9404C170.856 27.1736 169.421 25.7412 167.675 24.6321C165.918 23.5174 163.814 22.9656 161.361 22.9656C158.512 22.9656 156.134 23.4783 154.217 24.5039C152.311 25.5294 150.779 26.8894 149.622 28.606C148.482 30.3115 147.668 32.3069 147.213 34.5809C146.741 36.8605 146.511 39.2516 146.511 41.7541C146.511 44.0281 146.768 46.2966 147.293 48.5371C147.807 50.7833 148.658 52.7954 149.837 54.5622C151.015 56.3234 152.552 57.7614 154.431 58.865C156.311 59.9797 158.624 60.5371 161.361 60.5371C163.814 60.5371 165.918 59.9797 167.675 58.865C169.421 57.7558 170.856 56.3234 171.975 54.5622C173.1 52.7954 173.919 50.7889 174.433 48.5371C174.952 46.2966 175.215 44.0281 175.215 41.7541C175.215 39.4689 174.952 37.2116 174.433 34.9599Z" fill="#EE6638"/>
<path d="M212.237 17.6171L238.075 56.6656H238.199V17.6171H242.424V63.7719H237.706L211.867 24.7234H211.744V63.7719H207.519V17.6171H212.237Z" fill="#3C63AE"/>
<path d="M269.006 17.6171L286.4 63.7719H281.864L276.455 49.4255H256.271L250.927 63.7719H246.455L264.283 17.6171H269.006ZM275.025 45.6689L266.452 22.0091L257.567 45.6689H275.025Z" fill="#3C63AE"/>
<path d="M296.523 17.6171L311.865 58.0868L327.138 17.6171H333.356V63.7719H329.13V23.8874H329.007L313.857 63.7719H309.878L294.67 23.8874H294.536V63.7719H290.311V17.6171H296.523Z" fill="#3C63AE"/>
<path d="M372.791 17.6173V21.3684H346.395V38.0445H371.114V41.7899H346.395V60.0211H373.096V63.7721H342.17V17.6173H372.791Z" fill="#3C63AE"/>
<path d="M382.044 54.5366C382.794 56.1251 383.817 57.3959 385.129 58.3434C386.43 59.2965 387.972 59.9765 389.75 60.3889C391.523 60.7958 393.44 61.002 395.459 61.002C396.626 61.002 397.885 60.8236 399.25 60.4837C400.616 60.1381 401.891 59.5919 403.074 58.8339C404.247 58.087 405.227 57.1116 406.014 55.93C406.807 54.7429 407.203 53.3105 407.203 51.6328C407.203 50.3342 406.919 49.2139 406.362 48.2664C405.811 47.3189 405.082 46.5218 404.193 45.8753C403.304 45.2288 402.314 44.7049 401.243 44.2924C400.161 43.8855 399.111 43.5511 398.072 43.2947L388.197 40.7755C386.917 40.4299 385.654 39.9952 384.438 39.4768C383.217 38.9641 382.151 38.2729 381.241 37.4146C380.331 36.5451 379.592 35.4973 379.035 34.2432C378.472 32.9948 378.194 31.462 378.194 29.6562C378.194 28.5303 378.403 27.2205 378.82 25.7101C379.233 24.2052 380.004 22.784 381.15 21.4463C382.291 20.1142 383.854 18.9772 385.836 18.052C387.828 17.1212 390.377 16.6642 393.478 16.6642C395.673 16.6642 397.762 16.9651 399.754 17.5727C401.741 18.1802 403.476 19.0831 404.964 20.287C406.459 21.4965 407.647 22.9958 408.536 24.7849C409.425 26.574 409.875 28.6529 409.875 31.0217H405.655C405.575 29.2605 405.184 27.711 404.504 26.4012C403.818 25.0858 402.929 23.9934 401.832 23.1072C400.739 22.2266 399.47 21.5522 398.051 21.1007C396.616 20.6493 395.116 20.4208 393.542 20.4208C392.091 20.4208 390.698 20.5824 389.349 20.9057C388.005 21.2234 386.832 21.7417 385.809 22.4551C384.797 23.1685 383.983 24.0993 383.351 25.2642C382.735 26.4291 382.419 27.8726 382.419 29.5949C382.419 30.6761 382.596 31.6125 382.949 32.4095C383.303 33.2121 383.785 33.8865 384.406 34.4439C385.027 35.0068 385.745 35.4527 386.559 35.8038C387.362 36.1438 388.224 36.4281 389.129 36.6455L399.941 39.4211C401.51 39.8558 402.994 40.3853 404.375 41.004C405.762 41.6338 406.983 42.4085 408.044 43.3393C409.104 44.259 409.923 45.396 410.523 46.7281C411.123 48.0657 411.423 49.6821 411.423 51.5826C411.423 52.0954 411.369 52.7865 411.273 53.6504C411.166 54.5088 410.914 55.4284 410.523 56.3982C410.127 57.368 409.575 58.3434 408.852 59.3355C408.119 60.322 407.128 61.2249 405.864 62.0164C404.6 62.8134 403.037 63.4599 401.178 63.956C399.309 64.4465 397.071 64.6973 394.474 64.6973C391.86 64.6973 389.434 64.3852 387.207 63.7609C384.963 63.1423 383.067 62.1725 381.493 60.8794C379.913 59.5919 378.708 57.931 377.851 55.9077C377 53.879 376.646 51.4433 376.769 48.6064H380.989C380.952 50.9584 381.3 52.937 382.044 54.5366Z" fill="#3C63AE"/>
<path d="M191.23 78.9185H206.524V74.1921H195.76V4.86229H206.524V0.141472H191.23V78.9185Z" fill="#3C63AE"/>
<path d="M191.368 78.77H206.394V74.3278H195.636V4.71938H206.394V0.277237H191.368V78.77Z" fill="#3C63AE"/>
<path d="M412.357 0.142876V4.8637H423.121V74.1935H412.357V78.9199H427.657V0.142876H412.357Z" fill="#3C63AE"/>
<path d="M427.784 79.0556H412.216V74.0506H422.98V4.9995H412.216V0H427.784V79.0556ZM412.484 78.7714H427.511V0.278679H412.484V4.71525H423.248V74.3293H412.484V78.7714Z" fill="#3C63AE"/>
<path d="M2.31327 93.174H7.06642C9.29913 93.174 10.9142 93.508 11.9116 94.175C12.9091 94.843 13.4078 95.898 13.4078 97.34C13.4078 98.338 13.1277 99.163 12.5676 99.815C12.0152 100.459 11.2058 100.877 10.1393 101.069V101.184C12.6942 101.622 13.9717 102.964 13.9717 105.212C13.9717 106.716 13.4615 107.89 12.441 108.734C11.4283 109.578 10.0088 110 8.18278 110H2.31327V93.174ZM4.26978 100.379H7.49225C8.87331 100.379 9.8669 100.164 10.473 99.734C11.0792 99.297 11.3822 98.564 11.3822 97.536C11.3822 96.592 11.0446 95.913 10.3695 95.499C9.69427 95.077 8.62011 94.866 7.14698 94.866H4.26978V100.379ZM4.26978 102.036V108.331H7.77997C9.13801 108.331 10.1585 108.07 10.8413 107.549C11.5318 107.019 11.8771 106.194 11.8771 105.074C11.8771 104.031 11.5242 103.263 10.8183 102.772C10.1201 102.281 9.05361 102.036 7.61884 102.036H4.26978ZM15.181 97.386H17.2296L19.9917 104.579C20.5979 106.221 20.9738 107.407 21.1196 108.136H21.2117C21.3114 107.744 21.5186 107.077 21.8331 106.133C22.1554 105.182 23.1989 102.266 24.9635 97.386H27.0121L21.5915 111.749C21.0544 113.169 20.4252 114.174 19.704 114.765C18.9905 115.363 18.112 115.662 17.0685 115.662C16.4854 115.662 15.9099 115.597 15.3422 115.467V113.936C15.7641 114.028 16.236 114.074 16.7577 114.074C18.0698 114.074 19.0058 113.338 19.5659 111.864L20.2679 110.069L15.181 97.386Z" fill="#848A95"/>
<path d="M49.951 110H45.4165L38.0969 97.271H37.9933C38.1391 99.519 38.212 101.123 38.212 102.082V110H35.024V93.174H39.524L46.8321 105.776H46.9127C46.7976 103.59 46.74 102.044 46.74 101.138V93.174H49.951V110ZM59.1244 99.389C58.3802 99.389 57.7971 99.627 57.3751 100.102C56.9531 100.57 56.7114 101.238 56.65 102.105H61.5758C61.5605 101.238 61.3341 100.57 60.8968 100.102C60.4594 99.627 59.8687 99.389 59.1244 99.389ZM59.6193 110.23C57.5477 110.23 55.9288 109.659 54.7626 108.515C53.5963 107.372 53.0132 105.753 53.0132 103.659C53.0132 101.503 53.5503 99.838 54.6245 98.664C55.7063 97.482 57.1986 96.891 59.1014 96.891C60.9198 96.891 62.3354 97.409 63.3482 98.445C64.3609 99.481 64.8673 100.912 64.8673 102.738V104.441H56.5695C56.6078 105.439 56.9032 106.217 57.4556 106.778C58.0081 107.338 58.783 107.618 59.7804 107.618C60.5553 107.618 61.2881 107.537 61.9786 107.376C62.6691 107.215 63.3904 106.958 64.1423 106.605V109.321C63.5285 109.628 62.8725 109.854 62.1743 110C61.4761 110.153 60.6244 110.23 59.6193 110.23ZM73.0165 107.434C73.6303 107.434 74.3668 107.299 75.2262 107.031V109.643C74.3515 110.035 73.2773 110.23 72.0037 110.23C70.5996 110.23 69.5753 109.877 68.9308 109.171C68.294 108.458 67.9756 107.391 67.9756 105.972V99.769H66.2953V98.284L68.2288 97.11L69.2416 94.394H71.4858V97.133H75.088V99.769H71.4858V105.972C71.4858 106.471 71.6239 106.839 71.9001 107.077C72.184 107.315 72.5561 107.434 73.0165 107.434ZM88.2896 110L87.2998 105.5L85.9648 99.815H85.8842L83.5364 110H79.7615L76.1017 97.133H79.6004L81.085 102.83C81.3229 103.85 81.5646 105.258 81.8101 107.054H81.8792C81.9098 106.471 82.0441 105.546 82.282 104.28L82.4661 103.302L84.0543 97.133H87.9213L89.4289 103.302C89.4596 103.471 89.5057 103.72 89.5671 104.05C89.6361 104.38 89.7013 104.733 89.7627 105.109C89.8241 105.477 89.8778 105.841 89.9238 106.202C89.9775 106.555 90.0082 106.839 90.0159 107.054H90.0849C90.154 106.501 90.2768 105.746 90.4532 104.787C90.6297 103.82 90.7563 103.168 90.833 102.83L92.3752 97.133H95.8163L92.1105 110H88.2896ZM100.57 103.544C100.57 104.817 100.778 105.78 101.192 106.432C101.614 107.084 102.297 107.411 103.24 107.411C104.176 107.411 104.848 107.088 105.254 106.444C105.669 105.792 105.876 104.825 105.876 103.544C105.876 102.27 105.669 101.315 105.254 100.678C104.84 100.041 104.161 99.723 103.217 99.723C102.281 99.723 101.606 100.041 101.192 100.678C100.778 101.307 100.57 102.262 100.57 103.544ZM109.467 103.544C109.467 105.638 108.914 107.276 107.809 108.458C106.705 109.639 105.166 110.23 103.194 110.23C101.959 110.23 100.87 109.962 99.9259 109.425C98.9822 108.88 98.2571 108.101 97.7507 107.088C97.2443 106.075 96.9911 104.894 96.9911 103.544C96.9911 101.441 97.5397 99.807 98.6369 98.641C99.7341 97.475 101.276 96.891 103.263 96.891C104.499 96.891 105.588 97.16 106.532 97.697C107.476 98.234 108.201 99.005 108.707 100.01C109.214 101.015 109.467 102.193 109.467 103.544ZM119.423 96.891C119.898 96.891 120.294 96.926 120.608 96.995L120.343 100.287C120.06 100.21 119.714 100.171 119.308 100.171C118.187 100.171 117.313 100.459 116.684 101.035C116.062 101.61 115.751 102.416 115.751 103.451V110H112.241V97.133H114.9L115.418 99.297H115.59C115.989 98.576 116.526 97.996 117.202 97.559C117.884 97.114 118.625 96.891 119.423 96.891ZM126.191 103.003L127.721 101.046L131.324 97.133H135.283L130.173 102.715L135.594 110H131.542L127.837 104.787L126.329 105.995V110H122.819V92.092H126.329V100.079L126.145 103.003H126.191ZM153.515 105.327C153.515 106.847 152.966 108.043 151.869 108.918C150.779 109.793 149.26 110.23 147.311 110.23C145.516 110.23 143.928 109.893 142.547 109.217V105.903C143.682 106.409 144.641 106.766 145.424 106.973C146.214 107.18 146.935 107.284 147.588 107.284C148.37 107.284 148.969 107.134 149.383 106.835C149.805 106.536 150.016 106.091 150.016 105.5C150.016 105.17 149.924 104.879 149.74 104.625C149.556 104.365 149.283 104.115 148.923 103.877C148.57 103.639 147.845 103.26 146.747 102.738C145.719 102.255 144.948 101.79 144.434 101.345C143.92 100.9 143.51 100.382 143.203 99.792C142.896 99.201 142.742 98.51 142.742 97.72C142.742 96.232 143.245 95.062 144.25 94.21C145.263 93.358 146.659 92.932 148.439 92.932C149.314 92.932 150.146 93.036 150.937 93.243C151.735 93.45 152.567 93.742 153.434 94.118L152.283 96.891C151.385 96.523 150.641 96.266 150.05 96.12C149.467 95.975 148.892 95.902 148.324 95.902C147.649 95.902 147.131 96.059 146.77 96.374C146.41 96.688 146.229 97.099 146.229 97.605C146.229 97.92 146.302 98.196 146.448 98.434C146.594 98.664 146.824 98.89 147.139 99.113C147.461 99.327 148.217 99.719 149.406 100.287C150.979 101.038 152.057 101.794 152.64 102.554C153.223 103.306 153.515 104.23 153.515 105.327ZM158.959 103.544C158.959 104.817 159.166 105.78 159.581 106.432C160.003 107.084 160.685 107.411 161.629 107.411C162.565 107.411 163.237 107.088 163.643 106.444C164.058 105.792 164.265 104.825 164.265 103.544C164.265 102.27 164.058 101.315 163.643 100.678C163.229 100.041 162.55 99.723 161.606 99.723C160.67 99.723 159.995 100.041 159.581 100.678C159.166 101.307 158.959 102.262 158.959 103.544ZM167.855 103.544C167.855 105.638 167.303 107.276 166.198 108.458C165.093 109.639 163.555 110.23 161.583 110.23C160.348 110.23 159.258 109.962 158.315 109.425C157.371 108.88 156.646 108.101 156.139 107.088C155.633 106.075 155.38 104.894 155.38 103.544C155.38 101.441 155.928 99.807 157.026 98.641C158.123 97.475 159.665 96.891 161.652 96.891C162.887 96.891 163.977 97.16 164.921 97.697C165.864 98.234 166.589 99.005 167.096 100.01C167.602 101.015 167.855 102.193 167.855 103.544ZM174.14 110H170.63V92.092H174.14V110ZM186.824 110L186.352 108.354H186.168C185.792 108.953 185.259 109.417 184.568 109.747C183.878 110.069 183.091 110.23 182.209 110.23C180.697 110.23 179.558 109.827 178.791 109.022C178.023 108.208 177.64 107.042 177.64 105.523V97.133H181.15V104.648C181.15 105.577 181.315 106.275 181.645 106.743C181.975 107.203 182.5 107.434 183.222 107.434C184.204 107.434 184.913 107.107 185.351 106.455C185.788 105.795 186.007 104.706 186.007 103.187V97.133H189.517V110H186.824ZM198.495 107.434C199.108 107.434 199.845 107.299 200.704 107.031V109.643C199.83 110.035 198.755 110.23 197.482 110.23C196.078 110.23 195.053 109.877 194.409 109.171C193.772 108.458 193.454 107.391 193.454 105.972V99.769H191.773V98.284L193.707 97.11L194.72 94.394H196.964V97.133H200.566V99.769H196.964V105.972C196.964 106.471 197.102 106.839 197.378 107.077C197.662 107.315 198.034 107.434 198.495 107.434ZM203.041 93.807C203.041 92.664 203.678 92.092 204.952 92.092C206.226 92.092 206.862 92.664 206.862 93.807C206.862 94.352 206.701 94.778 206.379 95.085C206.064 95.384 205.589 95.533 204.952 95.533C203.678 95.533 203.041 94.958 203.041 93.807ZM206.701 110H203.191V97.133H206.701V110ZM213.067 103.544C213.067 104.817 213.274 105.78 213.688 106.432C214.11 107.084 214.793 107.411 215.737 107.411C216.673 107.411 217.344 107.088 217.751 106.444C218.165 105.792 218.372 104.825 218.372 103.544C218.372 102.27 218.165 101.315 217.751 100.678C217.336 100.041 216.657 99.723 215.714 99.723C214.778 99.723 214.102 100.041 213.688 100.678C213.274 101.307 213.067 102.262 213.067 103.544ZM221.963 103.544C221.963 105.638 221.41 107.276 220.306 108.458C219.201 109.639 217.662 110.23 215.691 110.23C214.455 110.23 213.366 109.962 212.422 109.425C211.478 108.88 210.753 108.101 210.247 107.088C209.741 106.075 209.487 104.894 209.487 103.544C209.487 101.441 210.036 99.807 211.133 98.641C212.23 97.475 213.772 96.891 215.76 96.891C216.995 96.891 218.084 97.16 219.028 97.697C219.972 98.234 220.697 99.005 221.203 100.01C221.71 101.015 221.963 102.193 221.963 103.544ZM236.615 110H233.104V102.485C233.104 101.556 232.939 100.862 232.609 100.402C232.28 99.934 231.754 99.7 231.033 99.7C230.051 99.7 229.341 100.03 228.904 100.689C228.466 101.342 228.248 102.427 228.248 103.946V110H224.737V97.133H227.419L227.891 98.779H228.086C228.478 98.157 229.015 97.689 229.698 97.375C230.388 97.053 231.171 96.891 232.046 96.891C233.542 96.891 234.677 97.298 235.452 98.111C236.227 98.917 236.615 100.083 236.615 101.61V110ZM249.079 106.179C249.079 107.499 248.619 108.504 247.698 109.194C246.785 109.885 245.416 110.23 243.59 110.23C242.654 110.23 241.856 110.165 241.196 110.035C240.536 109.912 239.918 109.728 239.343 109.482V106.582C239.995 106.889 240.728 107.146 241.541 107.353C242.362 107.56 243.083 107.664 243.705 107.664C244.979 107.664 245.615 107.295 245.615 106.559C245.615 106.283 245.531 106.06 245.362 105.891C245.193 105.715 244.902 105.519 244.487 105.304C244.073 105.082 243.521 104.825 242.83 104.533C241.84 104.119 241.112 103.735 240.644 103.382C240.183 103.029 239.846 102.627 239.631 102.174C239.424 101.714 239.32 101.15 239.32 100.482C239.32 99.339 239.761 98.457 240.644 97.835C241.534 97.206 242.792 96.891 244.418 96.891C245.968 96.891 247.476 97.229 248.941 97.904L247.883 100.436C247.238 100.16 246.636 99.934 246.076 99.757C245.516 99.581 244.944 99.492 244.361 99.492C243.325 99.492 242.807 99.772 242.807 100.333C242.807 100.647 242.972 100.92 243.302 101.15C243.64 101.38 244.372 101.721 245.5 102.174C246.505 102.581 247.242 102.96 247.71 103.313C248.178 103.666 248.523 104.073 248.746 104.533C248.968 104.994 249.079 105.542 249.079 106.179Z" fill="#007A33"/>
</svg>
